# xmcd
#
# Track frame offsets:
#	150
#	13345
#	26450
#	41177
#	58035
#	71055
#	82742
#	101572
#	111842
#	125270
#	142710
#	163632
#	180352
#	194602
#	212077
#	229452
#
# Disc length: 3215 seconds
#
# Revision: 0
# Processed by: cddbd v1.5.1PL0 Copyright (c) Steve Scherf et al.
# Submitted via: dBpowerAMP V4.0
#
DISCID=db0c8d10
DTITLE=Kapitán Kid - Zpoved unaveneho clowna
DYEAR=1998
DGENRE=Country
TTITLE0=Abonomá
TTITLE1=Vyrazme, mila, do prirody
TTITLE2=Bublifuk
TTITLE3=Tenisovy song
TTITLE4=Kyveta
TTITLE5=Vylet s panem Goddardem
TTITLE6=Pra-pra blues
TTITLE7=Kanibalská
TTITLE8=Cukr do caje
TTITLE9=Mary Celeste
TTITLE10=Regina aneb Song zhrzeneho dustojnika
TTITLE11=Diana a pes
TTITLE12=Dedeckova nocni kosile
TTITLE13=Hraj, Joe
TTITLE14=Duchodcuv narek
TTITLE15=Zpoved unaveneho clowna
EXTD=
EXTT0=
EXTT1=
EXTT2=
EXTT3=
EXTT4=
EXTT5=
EXTT6=
EXTT7=
EXTT8=
EXTT9=
EXTT10=
EXTT11=
EXTT12=
EXTT13=
EXTT14=
EXTT15=
PLAYORDER=
